<svg width="54" height="28" viewBox="0 0 54 28" fill="none" xmlns="http://www.w3.org/2000/svg">
<path d="M40.2156 0.713902C38.5074 0.69812 36.8157 1.04584 35.2547 1.73365C33.6938 2.42145 32.2998 3.4333 31.167 4.70087C29.929 5.81656 28.3159 6.43475 26.6428 6.43475C24.9697 6.43475 23.3566 5.81656 22.1185 4.70087C20.3594 2.83975 18.0685 1.55603 15.5529 1.02169C13.0373 0.487354 10.417 0.727938 8.04319 1.71117C5.66137 2.69498 3.62659 4.35575 2.19528 6.48416C0.763981 8.61258 0.000244141 11.1134 0.000244141 13.6715C0.000244141 16.2295 0.763981 18.7302 2.19528 20.8587C3.62659 22.9871 5.66137 24.6478 8.04319 25.6317C13.0168 27.5327 18.5203 26.5397 22.1185 22.642C24.4818 20.4154 28.7642 20.4582 31.167 22.642C35.1462 27.0216 40.9983 28.3994 46.2476 25.6317C51.497 22.864 54.7251 16.4005 53.2857 10.681C51.8463 4.9614 46.1612 0.712474 40.2156 0.713902Z" fill="#F4F4F4"/>
</svg>
