<svg width="22" height="22" viewBox="0 0 22 22" fill="none" xmlns="http://www.w3.org/2000/svg">
<path d="M15.9519 3.90503H5.61544C4.50361 3.90503 3.60229 4.80635 3.60229 5.91818V16.2546C3.60229 17.3664 4.50361 18.2678 5.61544 18.2678H15.9519C17.0637 18.2678 17.965 17.3664 17.965 16.2546V5.91818C17.965 4.80635 17.0637 3.90503 15.9519 3.90503Z" stroke="black"/>
<path d="M13.2105 7.71338H8.35642C7.83395 7.71338 7.4104 8.13693 7.4104 8.6594V13.5135C7.4104 14.0359 7.83395 14.4595 8.35642 14.4595H13.2105C13.733 14.4595 14.1565 14.0359 14.1565 13.5135V8.6594C14.1565 8.13693 13.733 7.71338 13.2105 7.71338Z" fill="black"/>
<path d="M5.87451 21.1713V18.2677" stroke="black" stroke-linecap="round"/>
<path d="M15.7363 21.1713V18.2677" stroke="black" stroke-linecap="round"/>
<path d="M13.2703 21.1713V18.2677" stroke="black" stroke-linecap="round"/>
<path d="M10.8054 21.1713V18.2677" stroke="black" stroke-linecap="round"/>
<path d="M8.33936 21.1713V18.2677" stroke="black" stroke-linecap="round"/>
<path d="M5.87451 3.9036V1" stroke="black" stroke-linecap="round"/>
<path d="M15.7363 3.9036V1" stroke="black" stroke-linecap="round"/>
<path d="M13.2703 3.9036V1" stroke="black" stroke-linecap="round"/>
<path d="M10.8054 3.9036V1" stroke="black" stroke-linecap="round"/>
<path d="M8.33936 3.9036V1" stroke="black" stroke-linecap="round"/>
<path d="M20.8682 16.0167H17.9646" stroke="black" stroke-linecap="round"/>
<path d="M20.8682 6.15466H17.9646" stroke="black" stroke-linecap="round"/>
<path d="M20.8682 8.62085H17.9646" stroke="black" stroke-linecap="round"/>
<path d="M20.8682 11.0857H17.9646" stroke="black" stroke-linecap="round"/>
<path d="M20.8682 13.5519H17.9646" stroke="black" stroke-linecap="round"/>
<path d="M3.60209 16.0167H0.698486" stroke="black" stroke-linecap="round"/>
<path d="M3.60209 6.15466H0.698486" stroke="black" stroke-linecap="round"/>
<path d="M3.60209 8.62085H0.698486" stroke="black" stroke-linecap="round"/>
<path d="M3.60209 11.0857H0.698486" stroke="black" stroke-linecap="round"/>
<path d="M3.60209 13.5519H0.698486" stroke="black" stroke-linecap="round"/>
</svg>
