<svg width="18" height="17" viewBox="0 0 18 17" fill="none" xmlns="http://www.w3.org/2000/svg">
<path d="M17.505 8.552C17.5341 6.31341 16.6729 4.1549 15.1108 2.55117C13.5486 0.94743 11.4135 0.0297744 9.17495 0C6.93637 0.0297744 4.80126 0.94743 3.23915 2.55117C1.67705 4.1549 0.815852 6.31341 0.844953 8.552C0.824657 10.5648 1.52023 12.5192 2.80753 14.0666C4.09484 15.614 5.89011 16.6537 7.87295 17V11.024H5.75795V8.552H7.87295V6.668C7.8214 6.23421 7.86581 5.7944 8.00305 5.37968C8.14029 4.96495 8.367 4.58546 8.66714 4.26806C8.96728 3.95065 9.33351 3.70309 9.73991 3.54289C10.1463 3.38269 10.583 3.31377 11.019 3.341C11.6439 3.34991 12.2673 3.40574 12.884 3.508V5.608H11.834C11.6521 5.5866 11.4677 5.60639 11.2945 5.66591C11.1213 5.72543 10.9637 5.82315 10.8334 5.95184C10.7031 6.08052 10.6034 6.23687 10.5417 6.40931C10.48 6.58175 10.4578 6.76586 10.477 6.948V8.548H12.787L12.418 11.02H10.477V17C12.4598 16.6537 14.2551 15.614 15.5424 14.0666C16.8297 12.5192 17.5252 10.5648 17.505 8.552Z" fill="#F4F4F4"/>
</svg>
