<svg width="18" height="17" viewBox="0 0 18 17" fill="none" xmlns="http://www.w3.org/2000/svg">
<path fill-rule="evenodd" clip-rule="evenodd" d="M16.9821 8.68555C16.9833 8.10347 16.9321 7.52246 16.8291 6.94955H8.8291V10.2346H13.4001C13.3054 10.7541 13.1064 11.2491 12.8151 11.6896C12.5237 12.1301 12.1462 12.507 11.7051 12.7976V14.9296H14.4491C15.2852 14.1243 15.9428 13.1524 16.3791 12.0767C16.8155 11.0011 17.0209 9.84571 16.9821 8.68555Z" fill="#4285F4"/>
<path fill-rule="evenodd" clip-rule="evenodd" d="M8.82926 16.9865C10.8967 17.0428 12.9075 16.3069 14.4503 14.9295L11.7053 12.7975C11.0486 13.2191 10.3044 13.4852 9.52934 13.5754C8.75427 13.6656 7.96883 13.5777 7.23293 13.3182C6.49703 13.0587 5.83011 12.6346 5.28305 12.0782C4.73599 11.5217 4.32323 10.8477 4.07626 10.1075H1.23926V12.3075C1.94615 13.7145 3.03033 14.8972 4.37067 15.7235C5.71101 16.5498 7.2547 16.9871 8.82926 16.9865Z" fill="#34A853"/>
<path fill-rule="evenodd" clip-rule="evenodd" d="M4.07715 10.1076C3.72244 9.06115 3.72244 7.927 4.07715 6.88057V4.68057H1.23615C0.642265 5.86443 0.333008 7.1706 0.333008 8.49507C0.333008 9.81954 0.642265 11.1257 1.23615 12.3096L4.07415 10.1096L4.07715 10.1076Z" fill="#FBBC05"/>
<path fill-rule="evenodd" clip-rule="evenodd" d="M8.82926 3.37856C10.036 3.35824 11.2022 3.81415 12.0753 4.64756L14.5123 2.21156C12.9746 0.7682 10.9381 -0.0241284 8.82926 0.000560101C7.2547 4.25425e-05 5.71101 0.437353 4.37067 1.26363C3.03033 2.08991 1.94615 3.2726 1.23926 4.67956L4.07726 6.87956C4.40386 5.87251 5.03798 4.99321 5.89041 4.36537C6.74283 3.73753 7.77066 3.39276 8.82926 3.37956V3.37856Z" fill="#EA4335"/>
</svg>
