<svg width="15" height="18" viewBox="0 0 15 18" fill="none" xmlns="http://www.w3.org/2000/svg">
<path d="M12.2891 16.354C11.9062 16.7204 11.4139 16.9514 10.8873 17.0117C10.3608 17.0721 9.82897 16.9583 9.37312 16.688C8.89132 16.4679 8.36781 16.354 7.83812 16.354C7.30842 16.354 6.78492 16.4679 6.30312 16.688C4.94412 17.275 4.22312 17.104 3.40312 16.354C-1.21688 11.6 -0.533884 4.349 4.71812 4.076C5.99212 4.144 6.88412 4.776 7.63412 4.833C8.74912 4.606 9.81712 3.956 11.0101 4.042C11.6418 4.05872 12.2612 4.22078 12.8201 4.51561C13.3791 4.81043 13.8626 5.23008 14.2331 5.742C13.6159 6.08938 13.1097 6.6045 12.7731 7.22771C12.4366 7.85091 12.2834 8.55671 12.3315 9.26335C12.3795 9.97 12.6267 10.6486 13.0445 11.2205C13.4623 11.7924 14.0336 12.2343 14.6921 12.495C14.2147 13.9594 13.3915 15.2872 12.2921 16.366L12.2891 16.354ZM7.53212 4.024C7.49191 3.0257 7.83816 2.05034 8.49881 1.30083C9.15947 0.551333 10.0837 0.0854096 11.0791 0C11.3501 2.439 8.85712 4.263 7.53212 4.024Z" fill="#F4F4F4"/>
</svg>
