<svg width="14" height="8" viewBox="0 0 14 8" fill="none" xmlns="http://www.w3.org/2000/svg">
<path fill-rule="evenodd" clip-rule="evenodd" d="M13.6923 0.305239C13.8893 0.500936 14 0.766213 14 1.0428C14 1.31939 13.8893 1.58466 13.6923 1.78036L7.73078 7.69476C7.53352 7.89022 7.26613 8 6.98734 8C6.70855 8 6.44116 7.89022 6.2439 7.69476L0.282355 1.78036C0.0965232 1.58251 -0.00464521 1.32082 0.000163599 1.05042C0.0049724 0.780029 0.115383 0.522042 0.308135 0.330815C0.500886 0.139588 0.760929 0.0300493 1.03348 0.0252785C1.30603 0.0205078 1.5698 0.120877 1.76924 0.30524L6.98734 5.48208L12.2054 0.305239C12.4027 0.109785 12.6701 -7.69903e-08 12.9489 -8.91767e-08C13.2277 -1.01363e-07 13.4951 0.109784 13.6923 0.305239Z" fill="#848484"/>
</svg>
