<svg width="54" height="28" viewBox="0 0 54 28" fill="none" xmlns="http://www.w3.org/2000/svg">
<path d="M40.2156 0.713902C38.5075 0.69812 36.8158 1.04584 35.2548 1.73365C33.6938 2.42145 32.2999 3.4333 31.1671 4.70087C29.929 5.81656 28.316 6.43475 26.6429 6.43475C24.9698 6.43475 23.3567 5.81656 22.1186 4.70087C20.3594 2.83975 18.0686 1.55603 15.553 1.02169C13.0374 0.487354 10.4171 0.727938 8.04325 1.71117C5.66143 2.69498 3.62665 4.35575 2.19534 6.48416C0.764042 8.61258 0.000305176 11.1134 0.000305176 13.6715C0.000305176 16.2295 0.764042 18.7302 2.19534 20.8587C3.62665 22.9871 5.66143 24.6478 8.04325 25.6317C13.0168 27.5327 18.5204 26.5397 22.1186 22.642C24.4819 20.4154 28.7642 20.4582 31.1671 22.642C35.1463 27.0216 40.9983 28.3994 46.2477 25.6317C51.497 22.864 54.7252 16.4005 53.2857 10.681C51.8463 4.9614 46.1613 0.712474 40.2156 0.713902Z" fill="black"/>
</svg>
