<svg width="183" height="37" viewBox="0 0 183 37" fill="none" xmlns="http://www.w3.org/2000/svg">
<path d="M31.552 10.1227C30.852 4.20672 26.717 0.644719 19.529 0.644719C16.63 0.504873 13.7668 1.33298 11.39 2.99872L8.782 7.00672V1.53572H0V35.3767H8.779V19.9197C8.779 10.5047 12.15 6.81972 16.412 6.81972C20.674 6.81972 22.646 9.23672 22.9 12.7997C23.027 14.5177 23.027 16.1077 23.027 17.5067V35.3767H31.806V16.2937C31.8394 14.2336 31.7546 12.1732 31.552 10.1227ZM148.662 1.53472H139.184L130.851 28.7647L122.327 1.53872H112.59L125.762 35.3767H135.562L148.662 1.53472ZM182.19 17.7567C182.19 8.53272 176.719 0.644719 166.35 0.644719C155.981 0.644719 149.175 8.21472 149.175 18.5837C149.175 30.4837 156.363 36.2677 165.651 36.2677C173.603 36.2677 179.964 32.2597 181.681 24.3677H172.902C172.33 27.9937 169.594 30.0927 165.841 30.0927C161.77 30.0927 158.589 27.8667 158.017 20.7417H182.062C182.162 19.75 182.204 18.7533 182.19 17.7567ZM165.965 6.81472C170.165 6.81472 172.581 9.67772 173.153 15.0207H158.268C159.031 9.42372 161.89 6.81472 165.965 6.81472Z" fill="#F4F4F4"/>
<path d="M93.3232 0.00072021C90.9511 -0.0213874 88.6017 0.465706 86.434 1.42919C84.2662 2.39267 82.3304 3.81007 80.7572 5.58568C79.0378 7.14854 76.7978 8.01451 74.4742 8.01451C72.1507 8.01451 69.9105 7.14854 68.1912 5.58568C65.7481 2.97862 62.5668 1.18037 59.0732 0.431873C55.5797 -0.316628 51.9408 0.0203818 48.6442 1.39769C45.3364 2.77582 42.5107 5.10224 40.5229 8.08373C38.5352 11.0652 37.4746 14.5684 37.4746 18.1517C37.4746 21.7351 38.5352 25.2381 40.5229 28.2196C42.5107 31.2011 45.3364 33.5275 48.6442 34.9056C55.5512 37.5686 63.1942 36.1776 68.1912 30.7176C71.4732 27.5986 77.4202 27.6586 80.7572 30.7176C86.2832 36.8526 94.4102 38.7826 101.7 34.9056C108.99 31.0286 113.473 21.9746 111.474 13.9626C109.475 5.95063 101.58 -0.00127979 93.3232 0.00072021Z" fill="#F4F4F4"/>
</svg>
