<svg width="183" height="37" viewBox="0 0 183 37" fill="none" xmlns="http://www.w3.org/2000/svg">
<path d="M31.552 10.1227C30.852 4.20672 26.717 0.644719 19.529 0.644719C16.63 0.504873 13.7668 1.33298 11.39 2.99872L8.782 7.00672V1.53572H0V35.3767H8.779V19.9197C8.779 10.5047 12.15 6.81972 16.412 6.81972C20.674 6.81972 22.646 9.23672 22.9 12.7997C23.027 14.5177 23.027 16.1077 23.027 17.5067V35.3767H31.806V16.2937C31.8394 14.2336 31.7546 12.1732 31.552 10.1227ZM148.662 1.53472H139.184L130.851 28.7647L122.327 1.53872H112.59L125.762 35.3767H135.562L148.662 1.53472ZM182.19 17.7567C182.19 8.53272 176.719 0.644719 166.35 0.644719C155.981 0.644719 149.175 8.21472 149.175 18.5837C149.175 30.4837 156.363 36.2677 165.651 36.2677C173.603 36.2677 179.964 32.2597 181.681 24.3677H172.902C172.33 27.9937 169.594 30.0927 165.841 30.0927C161.77 30.0927 158.589 27.8667 158.017 20.7417H182.062C182.162 19.75 182.204 18.7533 182.19 17.7567ZM165.965 6.81472C170.165 6.81472 172.581 9.67772 173.153 15.0207H158.268C159.031 9.42372 161.89 6.81472 165.965 6.81472Z" fill="black"/>
<path d="M93.323 0.00072021C90.9508 -0.0213874 88.6015 0.465706 86.4337 1.42919C84.2659 2.39267 82.3301 3.81007 80.757 5.58568C79.0376 7.14854 76.7975 8.01451 74.474 8.01451C72.1505 8.01451 69.9103 7.14854 68.1909 5.58568C65.7479 2.97862 62.5665 1.18037 59.073 0.431873C55.5795 -0.316628 51.9406 0.0203818 48.6439 1.39769C45.3362 2.77582 42.5104 5.10224 40.5227 8.08373C38.535 11.0652 37.4744 14.5684 37.4744 18.1517C37.4744 21.7351 38.535 25.2381 40.5227 28.2196C42.5104 31.2011 45.3362 33.5275 48.6439 34.9056C55.5509 37.5686 63.1939 36.1776 68.1909 30.7176C71.4729 27.5986 77.42 27.6586 80.757 30.7176C86.283 36.8526 94.41 38.7826 101.7 34.9056C108.99 31.0286 113.473 21.9746 111.474 13.9626C109.475 5.95063 101.58 -0.00127979 93.323 0.00072021Z" fill="black"/>
</svg>
