<svg width="17" height="16" viewBox="0 0 17 16" fill="none" xmlns="http://www.w3.org/2000/svg">
<path fill-rule="evenodd" clip-rule="evenodd" d="M12.4872 6.54489C12.4872 7.21342 12.3555 7.87539 12.0997 8.49303C11.8438 9.11066 11.4689 9.67186 10.9961 10.1446C10.5234 10.6173 9.96222 10.9923 9.34459 11.2481C8.72696 11.5039 8.06498 11.6356 7.39646 11.6356C6.72793 11.6356 6.06596 11.5039 5.44832 11.2481C4.83069 10.9923 4.26949 10.6173 3.79678 10.1446C3.32406 9.67186 2.94908 9.11066 2.69325 8.49303C2.43742 7.87539 2.30574 7.21342 2.30574 6.54489C2.30574 5.19475 2.84208 3.89991 3.79678 2.94521C4.75147 1.99052 6.04632 1.45418 7.39646 1.45418C8.7466 1.45418 10.0414 1.99052 10.9961 2.94521C11.9508 3.89991 12.4872 5.19475 12.4872 6.54489ZM11.4821 11.6589C10.1751 12.703 8.51796 13.2071 6.85093 13.0676C5.18389 12.9281 3.63355 12.1556 2.5183 10.9087C1.40305 9.66185 0.807548 8.03528 0.8541 6.36307C0.900651 4.69086 1.58572 3.09994 2.76861 1.91705C3.9515 0.734158 5.54242 0.0490887 7.21464 0.00253724C8.88685 -0.0440142 10.5134 0.551486 11.7603 1.66674C13.0072 2.78199 13.7797 4.33233 13.9192 5.99936C14.0587 7.6664 13.5546 9.32358 12.5104 10.6306L16.6383 14.7569C16.7059 14.8246 16.7595 14.9048 16.7961 14.9932C16.8327 15.0815 16.8516 15.1762 16.8516 15.2718C16.8516 15.3675 16.8327 15.4621 16.7961 15.5505C16.7595 15.6388 16.7059 15.7191 16.6383 15.7867C16.5707 15.8543 16.4904 15.908 16.4021 15.9446C16.3137 15.9812 16.219 16 16.1234 16C16.0278 16 15.9331 15.9812 15.8447 15.9446C15.7564 15.908 15.6761 15.8543 15.6085 15.7867L11.4836 11.6589H11.4821Z" fill="#848484"/>
</svg>
