<svg id="emjpHdexDA31" xmlns="http://www.w3.org/2000/svg" xmlns:xlink="http://www.w3.org/1999/xlink" viewBox="0 0 102 102" shape-rendering="geometricPrecision" text-rendering="geometricPrecision"><style><![CDATA[#emjpHdexDA32_tr {animation: emjpHdexDA32_tr__tr 1000ms linear infinite normal forwards}@keyframes emjpHdexDA32_tr__tr { 0% {transform: translate(50.999901px,51.000018px) rotate(0deg);animation-timing-function: cubic-bezier(0.680000,-0.550000,0.265000,1.550000)} 100% {transform: translate(50.999901px,51.000018px) rotate(180deg)}}]]></style><g id="emjpHdexDA32_tr" transform="translate(50.999901,51.000018) rotate(0)"><path id="emjpHdexDA32" d="M77.333000,0.000014C73.952300,-0.003648,70.607200,0.698901,67.506400,2.063790C64.405700,3.428680,61.616000,5.426610,59.311500,7.932810L59.229100,7.932810C57.018500,10.102700,54.060200,11.314000,50.982300,11.309400C47.904000,11.316600,44.944700,10.104900,42.735600,7.932810L42.696800,7.932810C39.308800,4.260250,34.906600,1.707970,30.065000,0.609182C25.223400,-0.489611,20.167300,-0.083868,15.556700,1.773440C10.946200,3.630750,6.995450,6.853330,4.220290,11.020500C1.445120,15.187600,-0.025525,20.105700,0.000335,25.132700C0.026195,30.159600,1.547360,35.061900,4.365250,39.199500C7.183140,43.337100,11.166800,46.517800,15.796200,48.326300C20.425600,50.134800,25.485600,50.487100,30.315700,49.337300C35.145700,48.187400,39.521400,45.588800,42.871500,41.880600C45.039900,39.789900,47.910900,38.611300,50.904200,38.583000C53.897400,38.554700,56.789600,39.678900,58.996200,41.728300C61.748100,44.823500,65.219700,47.172800,69.095700,48.562800C72.971700,49.952700,77.129000,50.339200,81.189900,49.687100C85.250800,49.035000,89.086500,47.365000,92.348300,44.828800C95.610100,42.292600,98.194600,38.970800,99.867000,35.165100C101.539000,31.359500,102.246000,27.190700,101.924000,23.037700C101.602000,18.884700,100.260000,14.879200,98.021100,11.385200C95.782100,7.891220,92.716800,5.019560,89.103800,3.031210C85.490800,1.042870,81.444600,0.000905,77.333000,0.000014Z" transform="translate(-50.999912,-24.999996)" fill="rgb(0,0,0)" stroke="none" stroke-width="1"/></g></svg>